<mxfile host="www.draw.io" modified="2019-11-29T08:49:32.258Z" agent="Mozilla/5.0 (Windows NT 10.0; Win64; x64) AppleWebKit/537.36 (KHTML, like Gecko) Chrome/78.0.3904.108 Safari/537.36" etag="8Ajqh-BBLa6XY4GgZ5TV" version="12.3.3" type="github" pages="1">
  <diagram id="oV1IBCx1C9U_mP6wELfB" name="Page-1">
    <mxGraphModel dx="1420" dy="753" grid="1" gridSize="10" guides="1" tooltips="1" connect="1" arrows="1" fold="1" page="1" pageScale="1" pageWidth="827" pageHeight="1169" math="0" shadow="0">
      <root>
        <mxCell id="0"/>
        <mxCell id="1" parent="0"/>
        <mxCell id="m6OTI2mPlHu9TXb5f57f-2" value="" style="rounded=0;whiteSpace=wrap;html=1;" parent="1" vertex="1">
          <mxGeometry x="60" y="503" width="1420" height="50" as="geometry"/>
        </mxCell>
        <mxCell id="m6OTI2mPlHu9TXb5f57f-3" value="" style="endArrow=none;html=1;exitX=0.25;exitY=0;exitDx=0;exitDy=0;entryX=0.25;entryY=1;entryDx=0;entryDy=0;" parent="1" source="m6OTI2mPlHu9TXb5f57f-2" target="m6OTI2mPlHu9TXb5f57f-2" edge="1">
          <mxGeometry width="50" height="50" relative="1" as="geometry">
            <mxPoint x="120" y="763" as="sourcePoint"/>
            <mxPoint x="170" y="713" as="targetPoint"/>
          </mxGeometry>
        </mxCell>
        <mxCell id="m6OTI2mPlHu9TXb5f57f-4" value="" style="endArrow=none;html=1;exitX=0.5;exitY=0;exitDx=0;exitDy=0;entryX=0.5;entryY=1;entryDx=0;entryDy=0;" parent="1" source="m6OTI2mPlHu9TXb5f57f-2" target="m6OTI2mPlHu9TXb5f57f-2" edge="1">
          <mxGeometry width="50" height="50" relative="1" as="geometry">
            <mxPoint x="550" y="793" as="sourcePoint"/>
            <mxPoint x="600" y="743" as="targetPoint"/>
          </mxGeometry>
        </mxCell>
        <mxCell id="m6OTI2mPlHu9TXb5f57f-5" value="" style="endArrow=none;html=1;exitX=0.75;exitY=0;exitDx=0;exitDy=0;entryX=0.75;entryY=1;entryDx=0;entryDy=0;" parent="1" source="m6OTI2mPlHu9TXb5f57f-2" target="m6OTI2mPlHu9TXb5f57f-2" edge="1">
          <mxGeometry width="50" height="50" relative="1" as="geometry">
            <mxPoint x="620" y="793" as="sourcePoint"/>
            <mxPoint x="670" y="743" as="targetPoint"/>
          </mxGeometry>
        </mxCell>
        <mxCell id="m6OTI2mPlHu9TXb5f57f-6" value="" style="endArrow=none;html=1;exitX=0.123;exitY=0.02;exitDx=0;exitDy=0;exitPerimeter=0;" parent="1" source="m6OTI2mPlHu9TXb5f57f-2" edge="1">
          <mxGeometry width="50" height="50" relative="1" as="geometry">
            <mxPoint x="170" y="783" as="sourcePoint"/>
            <mxPoint x="235" y="553" as="targetPoint"/>
          </mxGeometry>
        </mxCell>
        <mxCell id="m6OTI2mPlHu9TXb5f57f-7" value="" style="endArrow=none;html=1;exitX=0.38;exitY=0.02;exitDx=0;exitDy=0;exitPerimeter=0;" parent="1" edge="1">
          <mxGeometry width="50" height="50" relative="1" as="geometry">
            <mxPoint x="587.5999999999999" y="504" as="sourcePoint"/>
            <mxPoint x="588" y="553" as="targetPoint"/>
          </mxGeometry>
        </mxCell>
        <mxCell id="m6OTI2mPlHu9TXb5f57f-9" value="" style="endArrow=none;html=1;exitX=0.623;exitY=0.04;exitDx=0;exitDy=0;exitPerimeter=0;" parent="1" edge="1">
          <mxGeometry width="50" height="50" relative="1" as="geometry">
            <mxPoint x="944.6599999999999" y="504" as="sourcePoint"/>
            <mxPoint x="945" y="553" as="targetPoint"/>
          </mxGeometry>
        </mxCell>
        <mxCell id="m6OTI2mPlHu9TXb5f57f-10" value="" style="endArrow=none;html=1;exitX=0.886;exitY=0.04;exitDx=0;exitDy=0;exitPerimeter=0;" parent="1" edge="1">
          <mxGeometry width="50" height="50" relative="1" as="geometry">
            <mxPoint x="1296.12" y="504" as="sourcePoint"/>
            <mxPoint x="1296" y="554" as="targetPoint"/>
          </mxGeometry>
        </mxCell>
        <mxCell id="m6OTI2mPlHu9TXb5f57f-12" value="" style="endArrow=none;html=1;exitX=0.061;exitY=0.02;exitDx=0;exitDy=0;exitPerimeter=0;" parent="1" source="m6OTI2mPlHu9TXb5f57f-2" edge="1">
          <mxGeometry width="50" height="50" relative="1" as="geometry">
            <mxPoint x="190" y="783" as="sourcePoint"/>
            <mxPoint x="147" y="553" as="targetPoint"/>
          </mxGeometry>
        </mxCell>
        <mxCell id="m6OTI2mPlHu9TXb5f57f-14" value="" style="endArrow=none;html=1;exitX=0.181;exitY=0;exitDx=0;exitDy=0;exitPerimeter=0;" parent="1" edge="1">
          <mxGeometry width="50" height="50" relative="1" as="geometry">
            <mxPoint x="322.02" y="503" as="sourcePoint"/>
            <mxPoint x="322" y="553" as="targetPoint"/>
          </mxGeometry>
        </mxCell>
        <mxCell id="m6OTI2mPlHu9TXb5f57f-15" value="" style="endArrow=none;html=1;exitX=0.307;exitY=0.04;exitDx=0;exitDy=0;exitPerimeter=0;" parent="1" source="m6OTI2mPlHu9TXb5f57f-2" edge="1">
          <mxGeometry width="50" height="50" relative="1" as="geometry">
            <mxPoint x="460" y="733" as="sourcePoint"/>
            <mxPoint x="496" y="553" as="targetPoint"/>
          </mxGeometry>
        </mxCell>
        <mxCell id="m6OTI2mPlHu9TXb5f57f-16" value="" style="endArrow=none;html=1;entryX=0.432;entryY=0.98;entryDx=0;entryDy=0;entryPerimeter=0;" parent="1" edge="1">
          <mxGeometry width="50" height="50" relative="1" as="geometry">
            <mxPoint x="678" y="504" as="sourcePoint"/>
            <mxPoint x="678.44" y="552" as="targetPoint"/>
          </mxGeometry>
        </mxCell>
        <mxCell id="m6OTI2mPlHu9TXb5f57f-17" value="" style="endArrow=none;html=1;exitX=0.556;exitY=0.04;exitDx=0;exitDy=0;exitPerimeter=0;entryX=0.556;entryY=0.98;entryDx=0;entryDy=0;entryPerimeter=0;" parent="1" edge="1">
          <mxGeometry width="50" height="50" relative="1" as="geometry">
            <mxPoint x="854.52" y="505" as="sourcePoint"/>
            <mxPoint x="854.52" y="552" as="targetPoint"/>
          </mxGeometry>
        </mxCell>
        <mxCell id="m6OTI2mPlHu9TXb5f57f-18" value="" style="endArrow=none;html=1;exitX=0.682;exitY=0.04;exitDx=0;exitDy=0;exitPerimeter=0;entryX=0.682;entryY=1.02;entryDx=0;entryDy=0;entryPerimeter=0;" parent="1" edge="1">
          <mxGeometry width="50" height="50" relative="1" as="geometry">
            <mxPoint x="1028.44" y="504" as="sourcePoint"/>
            <mxPoint x="1028.44" y="553" as="targetPoint"/>
          </mxGeometry>
        </mxCell>
        <mxCell id="m6OTI2mPlHu9TXb5f57f-19" value="" style="endArrow=none;html=1;exitX=0.808;exitY=0.04;exitDx=0;exitDy=0;exitPerimeter=0;entryX=0.808;entryY=1;entryDx=0;entryDy=0;entryPerimeter=0;" parent="1" edge="1">
          <mxGeometry width="50" height="50" relative="1" as="geometry">
            <mxPoint x="1207.3600000000001" y="504" as="sourcePoint"/>
            <mxPoint x="1207.3600000000001" y="552" as="targetPoint"/>
          </mxGeometry>
        </mxCell>
        <mxCell id="m6OTI2mPlHu9TXb5f57f-20" value="" style="endArrow=none;html=1;exitX=0.935;exitY=0.02;exitDx=0;exitDy=0;exitPerimeter=0;" parent="1" source="m6OTI2mPlHu9TXb5f57f-2" edge="1">
          <mxGeometry width="50" height="50" relative="1" as="geometry">
            <mxPoint x="1330" y="733" as="sourcePoint"/>
            <mxPoint x="1388" y="553" as="targetPoint"/>
          </mxGeometry>
        </mxCell>
        <mxCell id="m6OTI2mPlHu9TXb5f57f-21" value="1" style="text;html=1;strokeColor=none;fillColor=none;align=center;verticalAlign=middle;whiteSpace=wrap;rounded=0;" parent="1" vertex="1">
          <mxGeometry x="80" y="518" width="40" height="20" as="geometry"/>
        </mxCell>
        <mxCell id="m6OTI2mPlHu9TXb5f57f-22" value="0" style="text;html=1;strokeColor=none;fillColor=none;align=center;verticalAlign=middle;whiteSpace=wrap;rounded=0;" parent="1" vertex="1">
          <mxGeometry x="170" y="518" width="40" height="20" as="geometry"/>
        </mxCell>
        <mxCell id="m6OTI2mPlHu9TXb5f57f-23" value="2" style="text;html=1;strokeColor=none;fillColor=none;align=center;verticalAlign=middle;whiteSpace=wrap;rounded=0;" parent="1" vertex="1">
          <mxGeometry x="260" y="518" width="40" height="20" as="geometry"/>
        </mxCell>
        <mxCell id="m6OTI2mPlHu9TXb5f57f-25" value="1" style="text;html=1;strokeColor=none;fillColor=none;align=center;verticalAlign=middle;whiteSpace=wrap;rounded=0;" parent="1" vertex="1">
          <mxGeometry x="350" y="518" width="40" height="20" as="geometry"/>
        </mxCell>
        <mxCell id="m6OTI2mPlHu9TXb5f57f-26" value="1" style="text;html=1;strokeColor=none;fillColor=none;align=center;verticalAlign=middle;whiteSpace=wrap;rounded=0;" parent="1" vertex="1">
          <mxGeometry x="432" y="518" width="40" height="20" as="geometry"/>
        </mxCell>
        <mxCell id="m6OTI2mPlHu9TXb5f57f-27" value="3" style="text;html=1;strokeColor=none;fillColor=none;align=center;verticalAlign=middle;whiteSpace=wrap;rounded=0;" parent="1" vertex="1">
          <mxGeometry x="520" y="518" width="40" height="20" as="geometry"/>
        </mxCell>
        <mxCell id="m6OTI2mPlHu9TXb5f57f-28" value="0" style="text;html=1;strokeColor=none;fillColor=none;align=center;verticalAlign=middle;whiteSpace=wrap;rounded=0;" parent="1" vertex="1">
          <mxGeometry x="616" y="518" width="40" height="20" as="geometry"/>
        </mxCell>
        <mxCell id="m6OTI2mPlHu9TXb5f57f-29" value="4" style="text;html=1;strokeColor=none;fillColor=none;align=center;verticalAlign=middle;whiteSpace=wrap;rounded=0;" parent="1" vertex="1">
          <mxGeometry x="700" y="518" width="40" height="20" as="geometry"/>
        </mxCell>
        <mxCell id="m6OTI2mPlHu9TXb5f57f-30" value="2" style="text;html=1;strokeColor=none;fillColor=none;align=center;verticalAlign=middle;whiteSpace=wrap;rounded=0;" parent="1" vertex="1">
          <mxGeometry x="795" y="518" width="40" height="20" as="geometry"/>
        </mxCell>
        <mxCell id="m6OTI2mPlHu9TXb5f57f-31" value="5" style="text;html=1;strokeColor=none;fillColor=none;align=center;verticalAlign=middle;whiteSpace=wrap;rounded=0;" parent="1" vertex="1">
          <mxGeometry x="880" y="518" width="40" height="20" as="geometry"/>
        </mxCell>
        <mxCell id="m6OTI2mPlHu9TXb5f57f-32" value="2" style="text;html=1;strokeColor=none;fillColor=none;align=center;verticalAlign=middle;whiteSpace=wrap;rounded=0;" parent="1" vertex="1">
          <mxGeometry x="965" y="518" width="40" height="20" as="geometry"/>
        </mxCell>
        <mxCell id="m6OTI2mPlHu9TXb5f57f-33" value="2" style="text;html=1;strokeColor=none;fillColor=none;align=center;verticalAlign=middle;whiteSpace=wrap;rounded=0;" parent="1" vertex="1">
          <mxGeometry x="1060" y="518" width="40" height="20" as="geometry"/>
        </mxCell>
        <mxCell id="m6OTI2mPlHu9TXb5f57f-34" value="3" style="text;html=1;strokeColor=none;fillColor=none;align=center;verticalAlign=middle;whiteSpace=wrap;rounded=0;" parent="1" vertex="1">
          <mxGeometry x="1145" y="518" width="40" height="20" as="geometry"/>
        </mxCell>
        <mxCell id="m6OTI2mPlHu9TXb5f57f-35" value="1" style="text;html=1;strokeColor=none;fillColor=none;align=center;verticalAlign=middle;whiteSpace=wrap;rounded=0;" parent="1" vertex="1">
          <mxGeometry x="1230" y="518" width="40" height="20" as="geometry"/>
        </mxCell>
        <mxCell id="m6OTI2mPlHu9TXb5f57f-36" value="0" style="text;html=1;strokeColor=none;fillColor=none;align=center;verticalAlign=middle;whiteSpace=wrap;rounded=0;" parent="1" vertex="1">
          <mxGeometry x="1322" y="518" width="40" height="20" as="geometry"/>
        </mxCell>
        <mxCell id="m6OTI2mPlHu9TXb5f57f-37" value="2" style="text;html=1;strokeColor=none;fillColor=none;align=center;verticalAlign=middle;whiteSpace=wrap;rounded=0;" parent="1" vertex="1">
          <mxGeometry x="1414" y="518" width="40" height="20" as="geometry"/>
        </mxCell>
        <mxCell id="ZzYAM1PkheVIMPHpzazn-1" value="1" style="text;html=1;strokeColor=none;fillColor=none;align=center;verticalAlign=middle;whiteSpace=wrap;rounded=0;" parent="1" vertex="1">
          <mxGeometry x="80" y="574" width="40" height="20" as="geometry"/>
        </mxCell>
        <mxCell id="ZzYAM1PkheVIMPHpzazn-2" value="索引" style="text;html=1;strokeColor=none;fillColor=none;align=center;verticalAlign=middle;whiteSpace=wrap;rounded=0;fontColor=#FF0000;" parent="1" vertex="1">
          <mxGeometry y="574" width="40" height="20" as="geometry"/>
        </mxCell>
        <mxCell id="ZzYAM1PkheVIMPHpzazn-3" value="A数组值" style="text;html=1;strokeColor=none;fillColor=none;align=center;verticalAlign=middle;whiteSpace=wrap;rounded=0;labelBackgroundColor=#ffffff;fontColor=#FF0000;" parent="1" vertex="1">
          <mxGeometry y="518" width="50" height="22" as="geometry"/>
        </mxCell>
        <mxCell id="ZzYAM1PkheVIMPHpzazn-4" value="2" style="text;html=1;strokeColor=none;fillColor=none;align=center;verticalAlign=middle;whiteSpace=wrap;rounded=0;" parent="1" vertex="1">
          <mxGeometry x="170" y="574" width="40" height="20" as="geometry"/>
        </mxCell>
        <mxCell id="ZzYAM1PkheVIMPHpzazn-6" value="3" style="text;html=1;strokeColor=none;fillColor=none;align=center;verticalAlign=middle;whiteSpace=wrap;rounded=0;" parent="1" vertex="1">
          <mxGeometry x="260" y="574" width="40" height="20" as="geometry"/>
        </mxCell>
        <mxCell id="ZzYAM1PkheVIMPHpzazn-7" value="4" style="text;html=1;strokeColor=none;fillColor=none;align=center;verticalAlign=middle;whiteSpace=wrap;rounded=0;" parent="1" vertex="1">
          <mxGeometry x="350" y="574" width="40" height="20" as="geometry"/>
        </mxCell>
        <mxCell id="ZzYAM1PkheVIMPHpzazn-8" value="5" style="text;html=1;strokeColor=none;fillColor=none;align=center;verticalAlign=middle;whiteSpace=wrap;rounded=0;" parent="1" vertex="1">
          <mxGeometry x="432" y="574" width="40" height="20" as="geometry"/>
        </mxCell>
        <mxCell id="ZzYAM1PkheVIMPHpzazn-9" value="6" style="text;html=1;strokeColor=none;fillColor=none;align=center;verticalAlign=middle;whiteSpace=wrap;rounded=0;" parent="1" vertex="1">
          <mxGeometry x="520" y="574" width="40" height="20" as="geometry"/>
        </mxCell>
        <mxCell id="ZzYAM1PkheVIMPHpzazn-10" value="7" style="text;html=1;strokeColor=none;fillColor=none;align=center;verticalAlign=middle;whiteSpace=wrap;rounded=0;" parent="1" vertex="1">
          <mxGeometry x="616" y="574" width="40" height="20" as="geometry"/>
        </mxCell>
        <mxCell id="ZzYAM1PkheVIMPHpzazn-11" value="8" style="text;html=1;strokeColor=none;fillColor=none;align=center;verticalAlign=middle;whiteSpace=wrap;rounded=0;" parent="1" vertex="1">
          <mxGeometry x="700" y="575" width="40" height="20" as="geometry"/>
        </mxCell>
        <mxCell id="ZzYAM1PkheVIMPHpzazn-12" value="9" style="text;html=1;strokeColor=none;fillColor=none;align=center;verticalAlign=middle;whiteSpace=wrap;rounded=0;" parent="1" vertex="1">
          <mxGeometry x="795" y="575" width="40" height="20" as="geometry"/>
        </mxCell>
        <mxCell id="ZzYAM1PkheVIMPHpzazn-13" value="10" style="text;html=1;strokeColor=none;fillColor=none;align=center;verticalAlign=middle;whiteSpace=wrap;rounded=0;" parent="1" vertex="1">
          <mxGeometry x="880" y="575" width="40" height="20" as="geometry"/>
        </mxCell>
        <mxCell id="ZzYAM1PkheVIMPHpzazn-14" value="11" style="text;html=1;strokeColor=none;fillColor=none;align=center;verticalAlign=middle;whiteSpace=wrap;rounded=0;" parent="1" vertex="1">
          <mxGeometry x="965" y="575" width="40" height="20" as="geometry"/>
        </mxCell>
        <mxCell id="ZzYAM1PkheVIMPHpzazn-15" value="12" style="text;html=1;strokeColor=none;fillColor=none;align=center;verticalAlign=middle;whiteSpace=wrap;rounded=0;" parent="1" vertex="1">
          <mxGeometry x="1060" y="574" width="40" height="20" as="geometry"/>
        </mxCell>
        <mxCell id="ZzYAM1PkheVIMPHpzazn-16" value="13" style="text;html=1;strokeColor=none;fillColor=none;align=center;verticalAlign=middle;whiteSpace=wrap;rounded=0;" parent="1" vertex="1">
          <mxGeometry x="1145" y="574" width="40" height="20" as="geometry"/>
        </mxCell>
        <mxCell id="ZzYAM1PkheVIMPHpzazn-17" value="14" style="text;html=1;strokeColor=none;fillColor=none;align=center;verticalAlign=middle;whiteSpace=wrap;rounded=0;" parent="1" vertex="1">
          <mxGeometry x="1230" y="575" width="40" height="20" as="geometry"/>
        </mxCell>
        <mxCell id="ZzYAM1PkheVIMPHpzazn-18" value="15" style="text;html=1;strokeColor=none;fillColor=none;align=center;verticalAlign=middle;whiteSpace=wrap;rounded=0;" parent="1" vertex="1">
          <mxGeometry x="1322" y="574" width="40" height="20" as="geometry"/>
        </mxCell>
        <mxCell id="ZzYAM1PkheVIMPHpzazn-19" value="16" style="text;html=1;strokeColor=none;fillColor=none;align=center;verticalAlign=middle;whiteSpace=wrap;rounded=0;" parent="1" vertex="1">
          <mxGeometry x="1414" y="575" width="40" height="20" as="geometry"/>
        </mxCell>
        <mxCell id="ZzYAM1PkheVIMPHpzazn-20" value="" style="rounded=0;whiteSpace=wrap;html=1;fillColor=#f5f5f5;strokeColor=#666666;fontColor=#333333;" parent="1" vertex="1">
          <mxGeometry x="60" y="430" width="80" height="30" as="geometry"/>
        </mxCell>
        <mxCell id="ZzYAM1PkheVIMPHpzazn-21" value="1" style="text;html=1;strokeColor=none;fillColor=none;align=center;verticalAlign=middle;whiteSpace=wrap;rounded=0;" parent="1" vertex="1">
          <mxGeometry x="80" y="435" width="40" height="20" as="geometry"/>
        </mxCell>
        <mxCell id="ZzYAM1PkheVIMPHpzazn-24" value="2" style="rounded=0;whiteSpace=wrap;html=1;fillColor=#f5f5f5;strokeColor=#666666;fontColor=#333333;" parent="1" vertex="1">
          <mxGeometry x="240" y="430" width="80" height="30" as="geometry"/>
        </mxCell>
        <mxCell id="ZzYAM1PkheVIMPHpzazn-25" value="1" style="rounded=0;whiteSpace=wrap;html=1;fillColor=#f5f5f5;strokeColor=#666666;fontColor=#333333;" parent="1" vertex="1">
          <mxGeometry x="412" y="430" width="80" height="30" as="geometry"/>
        </mxCell>
        <mxCell id="ZzYAM1PkheVIMPHpzazn-26" value="0" style="rounded=0;whiteSpace=wrap;html=1;fillColor=#f5f5f5;strokeColor=#666666;fontColor=#333333;" parent="1" vertex="1">
          <mxGeometry x="590" y="430" width="80" height="30" as="geometry"/>
        </mxCell>
        <mxCell id="ZzYAM1PkheVIMPHpzazn-27" value="2" style="rounded=0;whiteSpace=wrap;html=1;fillColor=#f5f5f5;strokeColor=#666666;fontColor=#333333;" parent="1" vertex="1">
          <mxGeometry x="770" y="430" width="80" height="30" as="geometry"/>
        </mxCell>
        <mxCell id="ZzYAM1PkheVIMPHpzazn-28" value="2" style="rounded=0;whiteSpace=wrap;html=1;fillColor=#f5f5f5;strokeColor=#666666;fontColor=#333333;" parent="1" vertex="1">
          <mxGeometry x="950" y="430" width="80" height="30" as="geometry"/>
        </mxCell>
        <mxCell id="ZzYAM1PkheVIMPHpzazn-30" value="3" style="rounded=0;whiteSpace=wrap;html=1;fillColor=#f5f5f5;strokeColor=#666666;fontColor=#333333;" parent="1" vertex="1">
          <mxGeometry x="1125" y="430" width="80" height="30" as="geometry"/>
        </mxCell>
        <mxCell id="ZzYAM1PkheVIMPHpzazn-31" value="0" style="rounded=0;whiteSpace=wrap;html=1;fillColor=#f5f5f5;strokeColor=#666666;fontColor=#333333;" parent="1" vertex="1">
          <mxGeometry x="1301" y="430" width="80" height="30" as="geometry"/>
        </mxCell>
        <mxCell id="ZzYAM1PkheVIMPHpzazn-32" value="1" style="rounded=0;whiteSpace=wrap;html=1;fillColor=#f5f5f5;strokeColor=#666666;fontColor=#333333;" parent="1" vertex="1">
          <mxGeometry x="150" y="360" width="80" height="30" as="geometry"/>
        </mxCell>
        <mxCell id="ZzYAM1PkheVIMPHpzazn-33" value="4" style="rounded=0;whiteSpace=wrap;html=1;fillColor=#f5f5f5;strokeColor=#666666;fontColor=#333333;" parent="1" vertex="1">
          <mxGeometry x="500" y="360" width="80" height="30" as="geometry"/>
        </mxCell>
        <mxCell id="ZzYAM1PkheVIMPHpzazn-34" value="7" style="rounded=0;whiteSpace=wrap;html=1;fillColor=#f5f5f5;strokeColor=#666666;fontColor=#333333;" parent="1" vertex="1">
          <mxGeometry x="858" y="360" width="80" height="30" as="geometry"/>
        </mxCell>
        <mxCell id="ZzYAM1PkheVIMPHpzazn-35" value="4" style="rounded=0;whiteSpace=wrap;html=1;fillColor=#f5f5f5;strokeColor=#666666;fontColor=#333333;" parent="1" vertex="1">
          <mxGeometry x="1210" y="360" width="80" height="30" as="geometry"/>
        </mxCell>
        <mxCell id="ZzYAM1PkheVIMPHpzazn-36" value="4" style="rounded=0;whiteSpace=wrap;html=1;fillColor=#f5f5f5;strokeColor=#666666;fontColor=#333333;" parent="1" vertex="1">
          <mxGeometry x="330" y="280" width="80" height="30" as="geometry"/>
        </mxCell>
        <mxCell id="ZzYAM1PkheVIMPHpzazn-37" value="12" style="rounded=0;whiteSpace=wrap;html=1;fillColor=#f5f5f5;strokeColor=#666666;fontColor=#333333;" parent="1" vertex="1">
          <mxGeometry x="680" y="200" width="80" height="30" as="geometry"/>
        </mxCell>
        <mxCell id="ZzYAM1PkheVIMPHpzazn-38" value="11" style="rounded=0;whiteSpace=wrap;html=1;fillColor=#f5f5f5;strokeColor=#666666;fontColor=#333333;" parent="1" vertex="1">
          <mxGeometry x="1040" y="280" width="80" height="30" as="geometry"/>
        </mxCell>
        <mxCell id="ZzYAM1PkheVIMPHpzazn-39" value="29" style="rounded=0;whiteSpace=wrap;html=1;fillColor=#f5f5f5;strokeColor=#666666;fontColor=#333333;" parent="1" vertex="1">
          <mxGeometry x="1394" y="120" width="80" height="30" as="geometry"/>
        </mxCell>
        <mxCell id="ZzYAM1PkheVIMPHpzazn-42" value="" style="endArrow=none;html=1;fontColor=#FF0000;exitX=0.5;exitY=1;exitDx=0;exitDy=0;entryX=0.092;entryY=-0.02;entryDx=0;entryDy=0;entryPerimeter=0;" parent="1" source="ZzYAM1PkheVIMPHpzazn-32" target="m6OTI2mPlHu9TXb5f57f-2" edge="1">
          <mxGeometry width="50" height="50" relative="1" as="geometry">
            <mxPoint x="140" y="720" as="sourcePoint"/>
            <mxPoint x="190" y="500" as="targetPoint"/>
          </mxGeometry>
        </mxCell>
        <mxCell id="ZzYAM1PkheVIMPHpzazn-43" value="" style="endArrow=none;html=1;fontColor=#FF0000;exitX=0.5;exitY=1;exitDx=0;exitDy=0;entryX=0.5;entryY=0;entryDx=0;entryDy=0;" parent="1" source="ZzYAM1PkheVIMPHpzazn-32" target="ZzYAM1PkheVIMPHpzazn-20" edge="1">
          <mxGeometry width="50" height="50" relative="1" as="geometry">
            <mxPoint x="10" y="780" as="sourcePoint"/>
            <mxPoint x="60" y="730" as="targetPoint"/>
          </mxGeometry>
        </mxCell>
        <mxCell id="ZzYAM1PkheVIMPHpzazn-44" value="" style="endArrow=none;html=1;fontColor=#FF0000;exitX=0.5;exitY=1;exitDx=0;exitDy=0;entryX=0.029;entryY=0;entryDx=0;entryDy=0;entryPerimeter=0;" parent="1" source="ZzYAM1PkheVIMPHpzazn-20" target="m6OTI2mPlHu9TXb5f57f-2" edge="1">
          <mxGeometry width="50" height="50" relative="1" as="geometry">
            <mxPoint x="80" y="710" as="sourcePoint"/>
            <mxPoint x="130" y="660" as="targetPoint"/>
          </mxGeometry>
        </mxCell>
        <mxCell id="ZzYAM1PkheVIMPHpzazn-45" value="" style="endArrow=none;html=1;fontColor=#FF0000;exitX=0.5;exitY=1;exitDx=0;exitDy=0;entryX=0.154;entryY=0.02;entryDx=0;entryDy=0;entryPerimeter=0;" parent="1" source="ZzYAM1PkheVIMPHpzazn-24" target="m6OTI2mPlHu9TXb5f57f-2" edge="1">
          <mxGeometry width="50" height="50" relative="1" as="geometry">
            <mxPoint x="220" y="750" as="sourcePoint"/>
            <mxPoint x="270" y="700" as="targetPoint"/>
          </mxGeometry>
        </mxCell>
        <mxCell id="ZzYAM1PkheVIMPHpzazn-46" value="" style="endArrow=none;html=1;fontColor=#FF0000;exitX=0.5;exitY=1;exitDx=0;exitDy=0;entryX=0.276;entryY=0.02;entryDx=0;entryDy=0;entryPerimeter=0;" parent="1" source="ZzYAM1PkheVIMPHpzazn-25" target="m6OTI2mPlHu9TXb5f57f-2" edge="1">
          <mxGeometry width="50" height="50" relative="1" as="geometry">
            <mxPoint x="220" y="710" as="sourcePoint"/>
            <mxPoint x="240" y="660" as="targetPoint"/>
          </mxGeometry>
        </mxCell>
        <mxCell id="ZzYAM1PkheVIMPHpzazn-47" value="" style="endArrow=none;html=1;fontColor=#FF0000;exitX=0.5;exitY=1;exitDx=0;exitDy=0;entryX=0.401;entryY=0;entryDx=0;entryDy=0;entryPerimeter=0;" parent="1" source="ZzYAM1PkheVIMPHpzazn-26" target="m6OTI2mPlHu9TXb5f57f-2" edge="1">
          <mxGeometry width="50" height="50" relative="1" as="geometry">
            <mxPoint x="250" y="720" as="sourcePoint"/>
            <mxPoint x="631" y="500" as="targetPoint"/>
          </mxGeometry>
        </mxCell>
        <mxCell id="ZzYAM1PkheVIMPHpzazn-49" value="" style="endArrow=none;html=1;fontColor=#FF0000;exitX=0.5;exitY=1;exitDx=0;exitDy=0;entryX=0.528;entryY=0;entryDx=0;entryDy=0;entryPerimeter=0;" parent="1" source="ZzYAM1PkheVIMPHpzazn-27" target="m6OTI2mPlHu9TXb5f57f-2" edge="1">
          <mxGeometry width="50" height="50" relative="1" as="geometry">
            <mxPoint x="710" y="760" as="sourcePoint"/>
            <mxPoint x="760" y="710" as="targetPoint"/>
          </mxGeometry>
        </mxCell>
        <mxCell id="ZzYAM1PkheVIMPHpzazn-50" value="" style="endArrow=none;html=1;fontColor=#FF0000;exitX=0.5;exitY=1;exitDx=0;exitDy=0;entryX=0.655;entryY=0;entryDx=0;entryDy=0;entryPerimeter=0;" parent="1" source="ZzYAM1PkheVIMPHpzazn-28" target="m6OTI2mPlHu9TXb5f57f-2" edge="1">
          <mxGeometry width="50" height="50" relative="1" as="geometry">
            <mxPoint x="970" y="750" as="sourcePoint"/>
            <mxPoint x="1020" y="700" as="targetPoint"/>
          </mxGeometry>
        </mxCell>
        <mxCell id="ZzYAM1PkheVIMPHpzazn-52" value="" style="endArrow=none;html=1;fontColor=#FF0000;exitX=0.5;exitY=1;exitDx=0;exitDy=0;entryX=0.778;entryY=0;entryDx=0;entryDy=0;entryPerimeter=0;" parent="1" source="ZzYAM1PkheVIMPHpzazn-30" target="m6OTI2mPlHu9TXb5f57f-2" edge="1">
          <mxGeometry width="50" height="50" relative="1" as="geometry">
            <mxPoint x="1010" y="730" as="sourcePoint"/>
            <mxPoint x="1060" y="680" as="targetPoint"/>
          </mxGeometry>
        </mxCell>
        <mxCell id="ZzYAM1PkheVIMPHpzazn-53" value="" style="endArrow=none;html=1;fontColor=#FF0000;exitX=0.5;exitY=1;exitDx=0;exitDy=0;entryX=0.902;entryY=-0.02;entryDx=0;entryDy=0;entryPerimeter=0;" parent="1" source="ZzYAM1PkheVIMPHpzazn-31" target="m6OTI2mPlHu9TXb5f57f-2" edge="1">
          <mxGeometry width="50" height="50" relative="1" as="geometry">
            <mxPoint x="1260" y="740" as="sourcePoint"/>
            <mxPoint x="1310" y="690" as="targetPoint"/>
          </mxGeometry>
        </mxCell>
        <mxCell id="ZzYAM1PkheVIMPHpzazn-54" value="" style="endArrow=none;html=1;fontColor=#FF0000;exitX=0.5;exitY=1;exitDx=0;exitDy=0;entryX=0.219;entryY=-0.02;entryDx=0;entryDy=0;entryPerimeter=0;" parent="1" source="ZzYAM1PkheVIMPHpzazn-36" target="m6OTI2mPlHu9TXb5f57f-2" edge="1">
          <mxGeometry width="50" height="50" relative="1" as="geometry">
            <mxPoint x="300" y="760" as="sourcePoint"/>
            <mxPoint x="350" y="710" as="targetPoint"/>
          </mxGeometry>
        </mxCell>
        <mxCell id="ZzYAM1PkheVIMPHpzazn-55" value="" style="endArrow=none;html=1;fontColor=#FF0000;exitX=0.5;exitY=1;exitDx=0;exitDy=0;entryX=0.5;entryY=0;entryDx=0;entryDy=0;" parent="1" source="ZzYAM1PkheVIMPHpzazn-36" target="ZzYAM1PkheVIMPHpzazn-32" edge="1">
          <mxGeometry width="50" height="50" relative="1" as="geometry">
            <mxPoint x="120" y="790" as="sourcePoint"/>
            <mxPoint x="170" y="740" as="targetPoint"/>
          </mxGeometry>
        </mxCell>
        <mxCell id="ZzYAM1PkheVIMPHpzazn-56" value="" style="endArrow=none;html=1;fontColor=#FF0000;entryX=0.5;entryY=0;entryDx=0;entryDy=0;" parent="1" target="ZzYAM1PkheVIMPHpzazn-24" edge="1">
          <mxGeometry width="50" height="50" relative="1" as="geometry">
            <mxPoint x="370" y="310" as="sourcePoint"/>
            <mxPoint x="110" y="770" as="targetPoint"/>
          </mxGeometry>
        </mxCell>
        <mxCell id="ZzYAM1PkheVIMPHpzazn-57" value="" style="endArrow=none;html=1;fontColor=#FF0000;exitX=0.5;exitY=1;exitDx=0;exitDy=0;entryX=0.339;entryY=0;entryDx=0;entryDy=0;entryPerimeter=0;" parent="1" source="ZzYAM1PkheVIMPHpzazn-33" target="m6OTI2mPlHu9TXb5f57f-2" edge="1">
          <mxGeometry width="50" height="50" relative="1" as="geometry">
            <mxPoint x="440" y="760" as="sourcePoint"/>
            <mxPoint x="540" y="500" as="targetPoint"/>
          </mxGeometry>
        </mxCell>
        <mxCell id="ZzYAM1PkheVIMPHpzazn-58" value="" style="endArrow=none;html=1;fontColor=#FF0000;exitX=0.5;exitY=1;exitDx=0;exitDy=0;entryX=0.5;entryY=0;entryDx=0;entryDy=0;" parent="1" source="ZzYAM1PkheVIMPHpzazn-33" target="ZzYAM1PkheVIMPHpzazn-25" edge="1">
          <mxGeometry width="50" height="50" relative="1" as="geometry">
            <mxPoint x="320" y="780" as="sourcePoint"/>
            <mxPoint x="370" y="730" as="targetPoint"/>
          </mxGeometry>
        </mxCell>
        <mxCell id="ZzYAM1PkheVIMPHpzazn-59" value="" style="endArrow=none;html=1;fontColor=#FF0000;exitX=0.5;exitY=1;exitDx=0;exitDy=0;entryX=0.465;entryY=0.02;entryDx=0;entryDy=0;entryPerimeter=0;" parent="1" source="ZzYAM1PkheVIMPHpzazn-37" target="m6OTI2mPlHu9TXb5f57f-2" edge="1">
          <mxGeometry width="50" height="50" relative="1" as="geometry">
            <mxPoint x="680" y="810" as="sourcePoint"/>
            <mxPoint x="730" y="760" as="targetPoint"/>
          </mxGeometry>
        </mxCell>
        <mxCell id="ZzYAM1PkheVIMPHpzazn-60" value="" style="endArrow=none;html=1;fontColor=#FF0000;exitX=0.5;exitY=1;exitDx=0;exitDy=0;entryX=0.5;entryY=0;entryDx=0;entryDy=0;" parent="1" source="ZzYAM1PkheVIMPHpzazn-37" target="ZzYAM1PkheVIMPHpzazn-36" edge="1">
          <mxGeometry width="50" height="50" relative="1" as="geometry">
            <mxPoint x="270" y="820" as="sourcePoint"/>
            <mxPoint x="320" y="770" as="targetPoint"/>
          </mxGeometry>
        </mxCell>
        <mxCell id="ZzYAM1PkheVIMPHpzazn-61" value="" style="endArrow=none;html=1;fontColor=#FF0000;entryX=0.5;entryY=0;entryDx=0;entryDy=0;" parent="1" target="ZzYAM1PkheVIMPHpzazn-33" edge="1">
          <mxGeometry width="50" height="50" relative="1" as="geometry">
            <mxPoint x="720" y="230" as="sourcePoint"/>
            <mxPoint x="350" y="750" as="targetPoint"/>
          </mxGeometry>
        </mxCell>
        <mxCell id="ZzYAM1PkheVIMPHpzazn-62" value="" style="endArrow=none;html=1;fontColor=#FF0000;entryX=0.5;entryY=0;entryDx=0;entryDy=0;" parent="1" target="ZzYAM1PkheVIMPHpzazn-26" edge="1">
          <mxGeometry width="50" height="50" relative="1" as="geometry">
            <mxPoint x="720" y="230" as="sourcePoint"/>
            <mxPoint x="550" y="730" as="targetPoint"/>
          </mxGeometry>
        </mxCell>
        <mxCell id="ZzYAM1PkheVIMPHpzazn-64" value="" style="endArrow=none;html=1;fontColor=#FF0000;exitX=0.5;exitY=1;exitDx=0;exitDy=0;" parent="1" source="ZzYAM1PkheVIMPHpzazn-34" edge="1">
          <mxGeometry width="50" height="50" relative="1" as="geometry">
            <mxPoint x="660" y="790" as="sourcePoint"/>
            <mxPoint x="900" y="502" as="targetPoint"/>
          </mxGeometry>
        </mxCell>
        <mxCell id="ZzYAM1PkheVIMPHpzazn-65" value="" style="endArrow=none;html=1;fontColor=#FF0000;exitX=0.5;exitY=1;exitDx=0;exitDy=0;entryX=0.5;entryY=0;entryDx=0;entryDy=0;" parent="1" source="ZzYAM1PkheVIMPHpzazn-34" target="ZzYAM1PkheVIMPHpzazn-27" edge="1">
          <mxGeometry width="50" height="50" relative="1" as="geometry">
            <mxPoint x="710" y="770" as="sourcePoint"/>
            <mxPoint x="760" y="720" as="targetPoint"/>
          </mxGeometry>
        </mxCell>
        <mxCell id="ZzYAM1PkheVIMPHpzazn-66" value="" style="endArrow=none;html=1;fontColor=#FF0000;exitX=0.5;exitY=1;exitDx=0;exitDy=0;entryX=0.717;entryY=0.02;entryDx=0;entryDy=0;entryPerimeter=0;" parent="1" source="ZzYAM1PkheVIMPHpzazn-38" target="m6OTI2mPlHu9TXb5f57f-2" edge="1">
          <mxGeometry width="50" height="50" relative="1" as="geometry">
            <mxPoint x="1000" y="740" as="sourcePoint"/>
            <mxPoint x="1050" y="690" as="targetPoint"/>
          </mxGeometry>
        </mxCell>
        <mxCell id="ZzYAM1PkheVIMPHpzazn-67" value="" style="endArrow=none;html=1;fontColor=#FF0000;exitX=0.5;exitY=1;exitDx=0;exitDy=0;entryX=0.5;entryY=0;entryDx=0;entryDy=0;" parent="1" source="ZzYAM1PkheVIMPHpzazn-38" target="ZzYAM1PkheVIMPHpzazn-28" edge="1">
          <mxGeometry width="50" height="50" relative="1" as="geometry">
            <mxPoint x="760" y="800" as="sourcePoint"/>
            <mxPoint x="810" y="750" as="targetPoint"/>
          </mxGeometry>
        </mxCell>
        <mxCell id="ZzYAM1PkheVIMPHpzazn-68" value="" style="endArrow=none;html=1;fontColor=#FF0000;exitX=0.5;exitY=1;exitDx=0;exitDy=0;entryX=0.5;entryY=0;entryDx=0;entryDy=0;" parent="1" source="ZzYAM1PkheVIMPHpzazn-38" target="ZzYAM1PkheVIMPHpzazn-34" edge="1">
          <mxGeometry width="50" height="50" relative="1" as="geometry">
            <mxPoint x="790" y="770" as="sourcePoint"/>
            <mxPoint x="840" y="720" as="targetPoint"/>
          </mxGeometry>
        </mxCell>
        <mxCell id="ZzYAM1PkheVIMPHpzazn-69" value="" style="endArrow=none;html=1;fontColor=#FF0000;exitX=0.5;exitY=1;exitDx=0;exitDy=0;entryX=0.839;entryY=0.02;entryDx=0;entryDy=0;entryPerimeter=0;" parent="1" source="ZzYAM1PkheVIMPHpzazn-35" target="m6OTI2mPlHu9TXb5f57f-2" edge="1">
          <mxGeometry width="50" height="50" relative="1" as="geometry">
            <mxPoint x="1180" y="730" as="sourcePoint"/>
            <mxPoint x="1230" y="680" as="targetPoint"/>
          </mxGeometry>
        </mxCell>
        <mxCell id="ZzYAM1PkheVIMPHpzazn-70" value="" style="endArrow=none;html=1;fontColor=#FF0000;exitX=0.5;exitY=1;exitDx=0;exitDy=0;entryX=0.967;entryY=0.02;entryDx=0;entryDy=0;entryPerimeter=0;" parent="1" source="ZzYAM1PkheVIMPHpzazn-39" target="m6OTI2mPlHu9TXb5f57f-2" edge="1">
          <mxGeometry width="50" height="50" relative="1" as="geometry">
            <mxPoint x="1260" y="770" as="sourcePoint"/>
            <mxPoint x="1310" y="720" as="targetPoint"/>
          </mxGeometry>
        </mxCell>
        <mxCell id="ZzYAM1PkheVIMPHpzazn-71" value="" style="endArrow=none;html=1;fontColor=#FF0000;exitX=0.5;exitY=1;exitDx=0;exitDy=0;entryX=0.5;entryY=0;entryDx=0;entryDy=0;" parent="1" source="ZzYAM1PkheVIMPHpzazn-35" target="ZzYAM1PkheVIMPHpzazn-30" edge="1">
          <mxGeometry width="50" height="50" relative="1" as="geometry">
            <mxPoint x="1030" y="760" as="sourcePoint"/>
            <mxPoint x="1080" y="710" as="targetPoint"/>
          </mxGeometry>
        </mxCell>
        <mxCell id="ZzYAM1PkheVIMPHpzazn-72" value="" style="endArrow=none;html=1;fontColor=#FF0000;exitX=0.5;exitY=1;exitDx=0;exitDy=0;entryX=0.5;entryY=0;entryDx=0;entryDy=0;" parent="1" source="ZzYAM1PkheVIMPHpzazn-39" target="ZzYAM1PkheVIMPHpzazn-37" edge="1">
          <mxGeometry width="50" height="50" relative="1" as="geometry">
            <mxPoint x="1040" y="730" as="sourcePoint"/>
            <mxPoint x="1090" y="680" as="targetPoint"/>
          </mxGeometry>
        </mxCell>
        <mxCell id="ZzYAM1PkheVIMPHpzazn-73" value="" style="endArrow=none;html=1;fontColor=#FF0000;exitX=0.5;exitY=1;exitDx=0;exitDy=0;entryX=0.5;entryY=0;entryDx=0;entryDy=0;" parent="1" source="ZzYAM1PkheVIMPHpzazn-39" target="ZzYAM1PkheVIMPHpzazn-38" edge="1">
          <mxGeometry width="50" height="50" relative="1" as="geometry">
            <mxPoint x="960" y="740" as="sourcePoint"/>
            <mxPoint x="1010" y="690" as="targetPoint"/>
          </mxGeometry>
        </mxCell>
        <mxCell id="ZzYAM1PkheVIMPHpzazn-74" value="" style="endArrow=none;html=1;fontColor=#FF0000;exitX=0.5;exitY=1;exitDx=0;exitDy=0;entryX=0.5;entryY=0;entryDx=0;entryDy=0;" parent="1" source="ZzYAM1PkheVIMPHpzazn-39" target="ZzYAM1PkheVIMPHpzazn-35" edge="1">
          <mxGeometry width="50" height="50" relative="1" as="geometry">
            <mxPoint x="790" y="760" as="sourcePoint"/>
            <mxPoint x="840" y="710" as="targetPoint"/>
          </mxGeometry>
        </mxCell>
        <mxCell id="ZzYAM1PkheVIMPHpzazn-75" value="" style="endArrow=none;html=1;fontColor=#FF0000;exitX=0.5;exitY=1;exitDx=0;exitDy=0;entryX=0.5;entryY=0;entryDx=0;entryDy=0;" parent="1" source="ZzYAM1PkheVIMPHpzazn-39" target="ZzYAM1PkheVIMPHpzazn-31" edge="1">
          <mxGeometry width="50" height="50" relative="1" as="geometry">
            <mxPoint x="1190" y="750" as="sourcePoint"/>
            <mxPoint x="1240" y="700" as="targetPoint"/>
          </mxGeometry>
        </mxCell>
        <mxCell id="ZzYAM1PkheVIMPHpzazn-76" value="C数组值" style="text;html=1;strokeColor=none;fillColor=none;align=center;verticalAlign=middle;whiteSpace=wrap;rounded=0;labelBackgroundColor=#ffffff;fontColor=#FF0000;" parent="1" vertex="1">
          <mxGeometry y="250" width="60" height="20" as="geometry"/>
        </mxCell>
      </root>
    </mxGraphModel>
  </diagram>
</mxfile>
